<mxfile host="Electron" agent="Mozilla/5.0 (X11; Linux x86_64) AppleWebKit/537.36 (KHTML, like Gecko) draw.io/26.1.1 Chrome/132.0.6834.210 Electron/34.3.3 Safari/537.36" version="26.1.1">
  <diagram name="Page-1" id="61H-CEgIV0KXDlU3DQIa">
    <mxGraphModel dx="830" dy="472" grid="1" gridSize="10" guides="1" tooltips="1" connect="1" arrows="1" fold="1" page="1" pageScale="1" pageWidth="850" pageHeight="1100" math="1" shadow="0">
      <root>
        <mxCell id="0" />
        <mxCell id="1" parent="0" />
        <mxCell id="gjFF0ayxSIzkZ_D3UTgW-14" value="" style="verticalLabelPosition=bottom;verticalAlign=top;html=1;shape=mxgraph.basic.arc;startAngle=0.004773216671265159;endAngle=0.9952267833287348;" parent="1" vertex="1">
          <mxGeometry x="360" y="360" width="160" height="160" as="geometry" />
        </mxCell>
        <mxCell id="gjFF0ayxSIzkZ_D3UTgW-1" value="&lt;font style=&quot;font-size: 9px;&quot; face=&quot;Times New Roman&quot;&gt;Real Projective Line&lt;/font&gt;" style="whiteSpace=wrap;html=1;fillColor=none;strokeColor=none;" parent="1" vertex="1">
          <mxGeometry x="400" y="430" width="80" height="20" as="geometry" />
        </mxCell>
        <mxCell id="OGV_l_GfXuicgaCAX01m-1" value="" style="ellipse;whiteSpace=wrap;html=1;fillColor=none;aspect=fixed;" parent="1" vertex="1">
          <mxGeometry x="438" y="358" width="4" height="4" as="geometry" />
        </mxCell>
        <mxCell id="OGV_l_GfXuicgaCAX01m-2" value="" style="ellipse;whiteSpace=wrap;html=1;fillColor=default;aspect=fixed;" parent="1" vertex="1">
          <mxGeometry x="518" y="438" width="4" height="4" as="geometry" />
        </mxCell>
        <mxCell id="OGV_l_GfXuicgaCAX01m-3" value="" style="ellipse;whiteSpace=wrap;html=1;fillColor=default;aspect=fixed;" parent="1" vertex="1">
          <mxGeometry x="358" y="438" width="4" height="4" as="geometry" />
        </mxCell>
        <mxCell id="OGV_l_GfXuicgaCAX01m-4" value="" style="ellipse;whiteSpace=wrap;html=1;fillColor=default;aspect=fixed;" parent="1" vertex="1">
          <mxGeometry x="438" y="518" width="4" height="4" as="geometry" />
        </mxCell>
        <mxCell id="OGV_l_GfXuicgaCAX01m-7" value="&lt;span style=&quot;font-family: &amp;quot;Times New Roman&amp;quot;; font-size: 9px;&quot;&gt;\((0,0)\)&lt;/span&gt;" style="whiteSpace=wrap;html=1;fillColor=none;strokeColor=none;" parent="1" vertex="1">
          <mxGeometry x="430" y="343" width="20" height="10" as="geometry" />
        </mxCell>
        <mxCell id="eCMpP_U1_j5m3ATyHsdI-1" value="&lt;span style=&quot;font-family: &amp;quot;Times New Roman&amp;quot;; font-size: 9px;&quot;&gt;\((1,\frac{\pi}{4})\)&lt;/span&gt;" style="whiteSpace=wrap;html=1;fillColor=none;strokeColor=none;" vertex="1" parent="1">
          <mxGeometry x="525" y="433" width="30" height="10" as="geometry" />
        </mxCell>
        <mxCell id="eCMpP_U1_j5m3ATyHsdI-2" value="&lt;span style=&quot;font-family: &amp;quot;Times New Roman&amp;quot;; font-size: 9px;&quot;&gt;\((-1,-\frac{\pi}{4})\)&lt;/span&gt;" style="whiteSpace=wrap;html=1;fillColor=none;strokeColor=none;" vertex="1" parent="1">
          <mxGeometry x="315" y="433" width="40" height="10" as="geometry" />
        </mxCell>
        <mxCell id="eCMpP_U1_j5m3ATyHsdI-4" value="&lt;font size=&quot;1&quot; face=&quot;Times New Roman&quot;&gt;\((-\infty,-\frac{\pi}{2});(\infty,\frac{\pi}{2})\)&lt;/font&gt;" style="whiteSpace=wrap;html=1;fillColor=none;strokeColor=none;" vertex="1" parent="1">
          <mxGeometry x="402" y="527" width="75" height="10" as="geometry" />
        </mxCell>
      </root>
    </mxGraphModel>
  </diagram>
</mxfile>
